<svg aria-hidden="true" style="position: absolute; width: 0; height: 0; overflow: hidden;"
    version="1.1" xmlns="http://www.w3.org/2000/svg" xmlns:xlink="http://www.w3.org/1999/xlink">
    <defs>
        <symbol id="icon-arrow-down" viewBox="0 0 18 32">
            <path stroke-linejoin="miter" stroke-linecap="butt" stroke-miterlimit="4"
                stroke-width="1.1034"
                d="M8.828 0v30.897M8.828 30.897l-7.724-7.933M8.828 30.897l7.724-7.933"></path>
        </symbol>
        <symbol id="icon-arrow-right" viewBox="0 0 43 32">
            <path stroke-linejoin="miter" stroke-linecap="butt" stroke-miterlimit="4"
                stroke-width="1.3333"
                d="M0 16h41.333M41.333 16l-14.419-14.667M41.333 16l-14.419 14.667"></path>
        </symbol>
        <symbol id="icon-cart" viewBox="0 0 32 32">
            <path
                d="M31.794 10.966c-0.156-0.154-0.375-0.226-0.592-0.197h-8.489v-3.751c0-3.707-3.005-6.712-6.712-6.712s-6.712 3.005-6.712 6.712v3.751h-8.489c-0.237 0-0.474 0-0.592 0.197-0.159 0.153-0.233 0.374-0.197 0.592l2.961 16.189c0.414 2.258 2.364 3.911 4.659 3.948h16.741c2.302-0.057 4.248-1.722 4.659-3.988l2.961-16.149c0.036-0.218-0.038-0.439-0.197-0.592zM10.867 7.017c0-2.835 2.298-5.133 5.133-5.133s5.133 2.298 5.133 5.133v3.751h-10.266v-3.751zM27.451 27.51c-0.266 1.497-1.56 2.591-3.080 2.606h-16.741c-1.52-0.015-2.814-1.109-3.080-2.606l-2.803-15.162h28.508l-2.803 15.162z"></path>
            <path
                d="M21.923 20.047c0.436 0 0.79-0.354 0.79-0.79v-2.369c0-0.436-0.353-0.79-0.79-0.79s-0.79 0.354-0.79 0.79v2.369c-0 0.436 0.353 0.79 0.79 0.79z"></path>
            <path
                d="M10.077 20.047c0.436 0 0.79-0.354 0.79-0.79v-2.369c0-0.436-0.354-0.79-0.79-0.79s-0.79 0.354-0.79 0.79v2.369c0 0.436 0.354 0.79 0.79 0.79z"></path>
        </symbol>
        <symbol id="icon-facebook" viewBox="0 0 32 32">
            <path
                d="M28.25 0h-24.5c-2.068 0-3.75 1.682-3.75 3.75v24.5c0 2.068 1.682 3.75 3.75 3.75h24.5c2.068 0 3.75-1.682 3.75-3.75v-24.5c0-2.068-1.682-3.75-3.75-3.75zM29.5 28.25c0 0.689-0.561 1.25-1.25 1.25h-7.375v-9.125h4.002l0.466-3.875h-4.468v-4.187c0-1.069 0.806-1.875 1.875-1.875h2.813v-3.625c-0.74-0.104-2.168-0.25-2.813-0.25-1.458 0-2.919 0.615-4.009 1.687-1.123 1.104-1.741 2.551-1.741 4.074v4.176h-4.062v3.875h4.062v9.125h-13.25c-0.689 0-1.25-0.561-1.25-1.25v-24.5c0-0.689 0.561-1.25 1.25-1.25h24.5c0.689 0 1.25 0.561 1.25 1.25v24.5z"></path>
        </symbol>
        <symbol id="icon-instagram" viewBox="0 0 31 32">
            <path
                d="M21.717 0.696h-12.826c-4.903 0-8.891 3.989-8.891 8.891v12.826c0 4.903 3.989 8.891 8.891 8.891h12.826c4.903 0 8.891-3.989 8.891-8.891v-12.826c0-4.903-3.989-8.891-8.891-8.891zM28.217 22.413c0 3.584-2.916 6.5-6.5 6.5h-12.826c-3.584 0-6.5-2.916-6.5-6.5v-12.826c0-3.584 2.916-6.5 6.5-6.5h12.826c3.584 0 6.5 2.916 6.5 6.5v12.826z"></path>
            <path
                d="M15.304 7.75c-4.549 0-8.25 3.701-8.25 8.25s3.701 8.25 8.25 8.25c4.549 0 8.25-3.701 8.25-8.25s-3.701-8.25-8.25-8.25zM15.304 21.859c-3.23 0-5.859-2.628-5.859-5.859s2.628-5.859 5.859-5.859c3.23 0 5.859 2.628 5.859 5.859s-2.628 5.859-5.859 5.859z"></path>
            <path
                d="M23.674 8.826c0.66 0 1.196-0.535 1.196-1.196s-0.535-1.196-1.196-1.196c-0.66 0-1.196 0.535-1.196 1.196s0.535 1.196 1.196 1.196z"></path>
        </symbol>
        <symbol id="icon-logo" viewBox="0 0 32 32">
            <path
                d="M27.542 28.991l-0.459-2.14c-0.945-4.409-2.676-8.552-5.146-12.32v-3.472c1.138-0.856 1.875-2.217 1.875-3.747v-1.875c0-0.518-0.42-0.938-0.937-0.938h-0.937v-3.563c0-0.518-0.42-0.938-0.938-0.938s-0.937 0.42-0.937 0.938v3.572c-1.684 0.098-3.159 0.984-4.062 2.294-0.904-1.31-2.379-2.195-4.063-2.294v-3.572c0-0.518-0.42-0.938-0.938-0.938s-0.938 0.42-0.938 0.938v3.563h-0.938c-0.518 0-0.938 0.42-0.938 0.938v1.875c0 1.53 0.737 2.891 1.875 3.747v3.472c-2.47 3.768-4.201 7.911-5.146 12.32l-0.458 2.14c-0.098 0.457 0.156 0.917 0.596 1.077 3.519 1.282 7.201 1.932 10.946 1.932s7.427-0.65 10.946-1.932c0.44-0.16 0.694-0.62 0.596-1.077zM20.375 6.375h1.563v0.938c0 1.551-1.262 2.813-2.813 2.813h-2.188v-0.313c0-1.895 1.542-3.438 3.438-3.438zM10.063 6.375h1.563c1.895 0 3.438 1.542 3.438 3.438v0.313h-2.188c-1.551 0-2.813-1.262-2.813-2.813v-0.938zM12.875 12h6.25c0.321 0 0.634-0.033 0.937-0.094v1.969h-8.125v-1.969c0.303 0.062 0.617 0.094 0.938 0.094zM16 30.125c-3.253 0-6.457-0.521-9.535-1.55l0.285-1.331c0.88-4.107 2.479-7.972 4.756-11.494h8.988c2.276 3.522 3.876 7.387 4.756 11.494l0.285 1.331c-3.078 1.029-6.282 1.55-9.535 1.55z"></path>
        </symbol>
        <symbol id="icon-ok" viewBox="0 0 27 32">
            <path
                d="M20.237 11.762c0.106 0.106 0.191 0.232 0.248 0.371s0.087 0.288 0.087 0.438c0 0.15-0.030 0.299-0.087 0.438s-0.142 0.265-0.248 0.371l-6.857 6.857c-0.106 0.106-0.232 0.191-0.371 0.248s-0.288 0.087-0.438 0.087-0.299-0.030-0.438-0.087c-0.139-0.058-0.265-0.142-0.371-0.248l-3.429-3.429c-0.106-0.106-0.191-0.232-0.248-0.371s-0.087-0.288-0.087-0.438c0-0.15 0.030-0.299 0.087-0.438s0.142-0.265 0.248-0.371c0.106-0.106 0.232-0.191 0.371-0.248s0.288-0.087 0.438-0.087c0.15 0 0.299 0.030 0.438 0.087s0.265 0.142 0.371 0.248l2.619 2.622 6.048-6.050c0.106-0.106 0.232-0.191 0.371-0.248s0.288-0.087 0.438-0.087 0.299 0.030 0.438 0.087c0.139 0.058 0.265 0.142 0.371 0.248z"></path>
            <path
                d="M4.571 0h18.286c1.212 0 2.375 0.482 3.233 1.339s1.339 2.020 1.339 3.232v22.857c0 1.212-0.482 2.375-1.339 3.233s-2.020 1.339-3.233 1.339h-18.286c-1.212 0-2.375-0.482-3.232-1.339s-1.339-2.020-1.339-3.233v-22.857c0-1.212 0.482-2.375 1.339-3.232s2.020-1.339 3.232-1.339zM4.571 2.286c-0.606 0-1.188 0.241-1.616 0.669s-0.669 1.010-0.669 1.616v22.857c0 0.606 0.241 1.188 0.669 1.616s1.010 0.669 1.616 0.669h18.286c0.606 0 1.188-0.241 1.616-0.669s0.669-1.010 0.669-1.616v-22.857c0-0.606-0.241-1.188-0.669-1.616s-1.010-0.669-1.616-0.669h-18.286z"></path>
        </symbol>
        <symbol id="icon-phone" viewBox="0 0 32 32">
            <path
                d="M4.24 9.066c-2.827 2.827-2.827 7.427-0 10.253l1.502-1.502c-1.999-1.999-1.999-5.251 0-7.25s5.251-1.999 7.25-0l1.502-1.502c-2.827-2.827-7.427-2.827-10.253-0z"></path>
            <path
                d="M7.231 12.030c-1.19 1.19-1.19 3.126-0 4.316l1.502-1.502c-0.175-0.175-0.272-0.409-0.272-0.657s0.097-0.481 0.272-0.657 0.409-0.272 0.657-0.272c0.248 0 0.481 0.097 0.657 0.272l1.502-1.502c-1.19-1.19-3.126-1.19-4.316-0z"></path>
            <path
                d="M25.879 8.348l-3.564-3.551-7.401 7.389 2.869 2.963c-0.481 0.854-1.524 2.489-3.302 4.267s-3.425 2.833-4.287 3.322l-2.905-2.868-7.285 7.242 3.544 3.568c1.355 1.355 3.416 1.706 5.13 0.874 2.615-1.27 6.56-3.613 10.511-7.564s6.294-7.897 7.564-10.511c0.301-0.62 0.447-1.284 0.447-1.945 0-1.167-0.456-2.32-1.321-3.185zM24.843 12.55c-1.199 2.468-3.413 6.195-7.155 9.937s-7.469 5.956-9.937 7.155c-0.9 0.437-1.985 0.25-2.698-0.463l-2.046-2.059 4.288-4.262 2.475 2.443 0.662-0.295c0.108-0.048 2.668-1.207 5.552-4.090 2.885-2.885 4.020-5.424 4.067-5.531l0.287-0.653-2.442-2.522 4.422-4.415 2.062 2.055c0.714 0.715 0.901 1.8 0.464 2.699z"></path>
        </symbol>
        <symbol id="icon-quality" viewBox="0 0 32 32">
            <path
                d="M19.619 13.027l-4.808 4.541-2.307-2.374c-0.256-0.263-0.677-0.269-0.94-0.014s-0.269 0.677-0.014 0.94l2.768 2.841c0.257 0.259 0.673 0.268 0.94 0.020l5.288-4.988c0.128-0.121 0.203-0.288 0.208-0.465s-0.060-0.348-0.182-0.476c-0.257-0.268-0.682-0.279-0.954-0.027z"></path>
            <path
                d="M16.052 6.039c-5.495 0-9.963 4.468-9.963 9.963s4.468 9.963 9.963 9.963c5.495 0 9.963-4.468 9.963-9.963s-4.468-9.963-9.963-9.963zM16.052 24.631c-4.761 0-8.629-3.875-8.629-8.63s3.868-8.629 8.629-8.629c4.766 0 8.63 3.863 8.63 8.629s-3.863 8.63-8.63 8.63z"></path>
            <path
                d="M29.763 12.334l0.22-3.955c0.015-0.265-0.129-0.515-0.367-0.634l-3.521-1.78-1.78-3.521c-0.121-0.236-0.369-0.379-0.634-0.367l-3.961 0.214-3.301-2.181c-0.222-0.147-0.511-0.147-0.734 0l-3.301 2.181-3.954-0.22c-0.266-0.016-0.515 0.129-0.634 0.367l-1.781 3.521-3.521 1.78c-0.236 0.121-0.379 0.369-0.367 0.634l0.22 3.955-2.181 3.301c-0.147 0.222-0.147 0.511 0 0.734l2.174 3.308-0.22 3.955c-0.015 0.265 0.129 0.515 0.367 0.634l3.521 1.78 1.78 3.521c0.121 0.236 0.369 0.379 0.634 0.367l3.955-0.22 3.301 2.181c0.221 0.151 0.512 0.151 0.734 0l3.301-2.181 3.955 0.22c0.265 0.015 0.514-0.129 0.634-0.367l1.78-3.521 3.521-1.78c0.236-0.121 0.379-0.369 0.367-0.634l-0.22-3.955 2.181-3.301c0.147-0.222 0.147-0.511 0-0.734l-2.167-3.301zM28.522 19.123c-0.081 0.119-0.119 0.263-0.107 0.407l0.207 3.741-3.328 1.68c-0.127 0.064-0.23 0.167-0.293 0.294l-1.681 3.328-3.741-0.207c-0.143-0.005-0.285 0.032-0.407 0.107l-3.121 2.061-3.121-2.061c-0.108-0.073-0.236-0.113-0.367-0.113h-0.033l-3.741 0.207-1.68-3.328c-0.064-0.127-0.166-0.23-0.294-0.293l-3.334-1.674 0.207-3.741c0.005-0.143-0.032-0.285-0.107-0.407l-2.061-3.121 2.061-3.121c0.082-0.119 0.119-0.263 0.107-0.407l-0.207-3.741 3.328-1.68c0.127-0.064 0.23-0.166 0.293-0.293l1.68-3.328 3.741 0.207c0.143 0.005 0.284-0.032 0.407-0.107l3.121-2.061 3.121 2.061c0.119 0.082 0.263 0.119 0.407 0.107l3.741-0.207 1.681 3.328c0.064 0.127 0.166 0.23 0.293 0.293l3.328 1.68-0.207 3.741c-0.005 0.143 0.032 0.284 0.107 0.407l2.061 3.121-2.061 3.121z"></path>
        </symbol>
        <symbol id="icon-remove" viewBox="0 0 32 32">
            <path stroke-linejoin="miter" stroke-linecap="butt" stroke-miterlimit="4"
                stroke-width="2.2857" d="M2.286 2.286l27.429 27.429M29.714 2.286l-27.429 27.429"></path>
        </symbol>
        <symbol id="icon-responsible" viewBox="0 0 32 32">
            <path
                d="M12.585 22.243c-0.171 0-0.341-0.065-0.472-0.195l-8.956-8.957c-1.040-1.040-1.040-2.732 0-3.772 1.043-1.040 2.733-1.037 3.771 0l8.015 8.015c0.26 0.26 0.26 0.683 0 0.943s-0.683 0.26-0.943 0l-8.015-8.015c-0.517-0.517-1.363-0.519-1.885 0-0.251 0.252-0.391 0.587-0.391 0.943 0 0.357 0.139 0.692 0.391 0.944l8.957 8.956c0.26 0.26 0.26 0.683 0 0.943-0.131 0.131-0.301 0.196-0.472 0.196z"></path>
            <path
                d="M17.3 15.643c-0.171 0-0.341-0.065-0.472-0.195l-8.956-8.957c-0.521-0.521-1.365-0.521-1.887 0-0.251 0.252-0.391 0.587-0.391 0.943s0.139 0.691 0.391 0.943l0.943 0.943c0.26 0.26 0.26 0.683 0 0.943s-0.683 0.26-0.943 0l-0.943-0.943c-0.504-0.504-0.781-1.173-0.781-1.885s0.277-1.381 0.781-1.885c1.007-1.007 2.763-1.009 3.772 0l8.956 8.957c0.26 0.26 0.26 0.683 0 0.943-0.131 0.131-0.3 0.195-0.471 0.195z"></path>
            <path
                d="M20.129 12.815c-0.171 0-0.341-0.065-0.472-0.195l-7.072-7.072c-0.521-0.521-1.364-0.521-1.885 0-0.52 0.52-0.52 1.365 0 1.885 0.26 0.26 0.26 0.683 0 0.943s-0.683 0.26-0.943 0c-1.039-1.039-1.039-2.732 0-3.771s2.732-1.039 3.771 0l7.072 7.072c0.26 0.26 0.26 0.683 0 0.943-0.129 0.129-0.3 0.195-0.471 0.195z"></path>
            <path
                d="M19.401 30.205c-0.449 0-0.904-0.051-1.355-0.153l-11.227-2.573c-0.485-0.101-0.937-0.349-1.305-0.717-0.504-0.504-0.783-1.175-0.783-1.885 0-0.712 0.279-1.381 0.783-1.885 0.347-0.347 0.768-0.585 1.223-0.696 0.013-0.005 0.027-0.008 0.040-0.012l5.653-1.356c0.359-0.089 0.719 0.136 0.804 0.493 0.085 0.359-0.136 0.717-0.493 0.804l-5.615 1.347c-0.017 0.005-0.035 0.011-0.053 0.015-0.224 0.049-0.437 0.171-0.616 0.349-0.252 0.252-0.392 0.587-0.392 0.943s0.139 0.691 0.392 0.943c0.177 0.177 0.397 0.303 0.619 0.352 0.009 0.001 0.017 0.003 0.025 0.005l11.244 2.577c1.577 0.361 3.2-0.105 4.343-1.249l5.456-5.457c0.881-0.881 1.367-2.053 1.367-3.3s-0.485-2.417-1.367-3.3l-11.785-11.785c-0.521-0.521-1.364-0.521-1.885 0-0.52 0.52-0.52 1.365 0 1.885 0.26 0.26 0.26 0.683 0 0.943s-0.683 0.26-0.943 0c-1.039-1.039-1.039-2.732 0-3.771s2.732-1.039 3.771 0l11.785 11.785c1.135 1.133 1.757 2.639 1.757 4.243s-0.624 3.109-1.757 4.243l-5.456 5.457c-1.144 1.14-2.659 1.757-4.229 1.757z"></path>
        </symbol>
        <symbol id="icon-slider-arrow-left" viewBox="0 0 58 32">
            <path stroke-linejoin="miter" stroke-linecap="butt" stroke-miterlimit="4"
                stroke-width="2" d="M58 16h-56M2 16l14.378-14M2 16l14.378 14"></path>
        </symbol>
        <symbol id="icon-slider-arrow-right" viewBox="0 0 58 32">
            <path stroke-linejoin="miter" stroke-linecap="butt" stroke-miterlimit="4"
                stroke-width="2" d="M0 16h56M56 16l-14.378 14M56 16l-14.378-14"></path>
        </symbol>
        <symbol id="icon-speed" viewBox="0 0 32 32">
            <path
                d="M26.117 20.656l-2.419-1.72c0.406-1.494 0.404-3.069-0.007-4.561l2.427-1.699-1.937-3.352-2.699 1.235c-1.091-1.099-2.457-1.884-3.955-2.275l-0.257-2.951h-3.875l-0.257 2.951c-1.498 0.391-2.863 1.177-3.953 2.276l-2.7-1.235-1.936 3.352 2.427 1.699c-0.411 1.492-0.414 3.067-0.008 4.56l-2.419 1.72 1.936 3.336 2.7-1.236c1.090 1.098 2.456 1.884 3.953 2.275l0.257 2.951h3.875l0.257-2.951c1.498-0.391 2.863-1.176 3.953-2.275l2.7 1.236 1.937-3.335-0.001-0.001zM18.007 3.98c0.172-0 0.337 0.066 0.461 0.184s0.198 0.28 0.206 0.452l0.237 2.713c0.986 0.376 1.905 0.906 2.724 1.571l2.467-1.151c0.152-0.078 0.329-0.095 0.493-0.047s0.304 0.158 0.389 0.307l2.673 4.627c0.086 0.148 0.111 0.324 0.071 0.491s-0.143 0.311-0.287 0.404l-2.232 1.563c0.171 1.064 0.165 2.124 0.001 3.145l2.231 1.56c0.144 0.093 0.248 0.238 0.288 0.405s0.015 0.343-0.072 0.491l-2.673 4.609c-0.086 0.148-0.225 0.258-0.389 0.307s-0.341 0.032-0.493-0.047l-2.467-1.151c-0.803 0.653-1.717 1.187-2.724 1.572l-0.237 2.713c-0.008 0.171-0.082 0.333-0.206 0.451s-0.289 0.184-0.46 0.184h-5.347c-0.171 0-0.336-0.066-0.46-0.184s-0.198-0.28-0.206-0.451l-0.237-2.713c-0.986-0.376-1.905-0.907-2.724-1.572l-2.467 1.151c-0.152 0.079-0.329 0.096-0.494 0.048s-0.304-0.158-0.39-0.307l-2.672-4.612c-0.086-0.148-0.111-0.324-0.071-0.491s0.143-0.311 0.287-0.404l2.231-1.561c-0.167-1.042-0.167-2.104 0-3.145l-2.229-1.561c-0.144-0.093-0.246-0.237-0.287-0.403s-0.015-0.342 0.071-0.49l2.669-4.628c0.086-0.149 0.225-0.259 0.39-0.307s0.342-0.031 0.494 0.047l2.467 1.151c0.819-0.665 1.738-1.195 2.724-1.571l0.237-2.713c0.008-0.171 0.082-0.333 0.206-0.452s0.289-0.184 0.461-0.184h5.348zM15.333 12c1.238 0 2.425 0.492 3.3 1.367s1.367 2.062 1.367 3.3c0 1.238-0.492 2.425-1.367 3.3s-2.062 1.367-3.3 1.367c-1.238 0-2.425-0.492-3.3-1.367s-1.367-2.062-1.367-3.3c0-1.238 0.492-2.425 1.367-3.3s2.062-1.367 3.3-1.367zM15.333 13.333c-0.884 0-1.732 0.351-2.357 0.976s-0.976 1.473-0.976 2.357c0 0.884 0.351 1.732 0.976 2.357s1.473 0.976 2.357 0.976 1.732-0.351 2.357-0.976c0.625-0.625 0.976-1.473 0.976-2.357s-0.351-1.732-0.976-2.357-1.473-0.976-2.357-0.976z"></path>
        </symbol>
        <symbol id="icon-twitter" viewBox="0 0 32 32">
            <path
                d="M28.203 7.186l-0.016-0.061c1.356-0.813 2.45-2.153 2.937-3.688-1.27 0.755-2.756 1.329-4.25 1.625-1.198-1.277-2.797-2.063-4.687-2.063-3.623 0-6.625 2.934-6.625 6.563 0 0.516 0.073 1.022 0.188 1.5v0.063c-5.4-0.309-10.29-3.055-13.5-7-0.563 0.971-0.875 2.358-0.875 3.563 0 1.875 1.113 4.386 2.875 5.563v0.125c-1.052-0.042-2.129-0.767-3-1.25 0 0.029 0.038 0.063 0.038 0.092 0 3.184 2.334 5.931 5.337 6.533-0.523 0.138-1.26 0.25-1.813 0.25-0.425 0-0.849-0.111-1.25-0.187 0.835 2.611 3.25 4.313 6.125 4.313v0.062c-2.238 1.735-5.074 2.937-8.125 2.937-0.53 0-1.188-0.062-1.563-0.125 2.903 1.865 6.353 3 10.063 3 12.073 0 18.688-9.938 18.688-18.625v-0.875c1.284-0.928 2.371-2.18 3.25-3.5 0 0-2.304 1.092-3.797 1.186zM26.25 10.375c0 1.876-0.367 3.846-1.063 5.696-0.73 1.945-1.782 3.7-3.125 5.216-2.106 2.378-5.898 5.212-12 5.212-0.179 0-0.358-0.003-0.537-0.009 0.589-0.342 1.155-0.722 1.694-1.14l0.968-0.751v-3.975l-1.030-0.011c-1.126-0.013-2.033-0.929-2.033-2.055v-2.044l-1.352-0.305c-0.598-0.135-1.023-0.667-1.023-1.28v-1.742l-0.031-1.274-1.112-0.742c-0.48-0.404-0.915-0.981-1.225-1.605 3.281 2.392 7.177 3.824 11.226 4.055l2.643 0.151v-3.005l-0.069-0.287c-0.079-0.329-0.119-0.637-0.119-0.918 0-1.076 0.43-2.093 1.209-2.862 0.785-0.774 1.82-1.2 2.916-1.2 1.108 0 2.072 0.428 2.865 1.273l0.638 0.68 0.077 0.298 0.016 0.061 0.467 1.805v0.757z"></path>
        </symbol>
    </defs>
</svg>
    